Coordinates
version=1
nRows=13
nColumns=36
inDegrees=yes

Units are S.I. units (second, meters, Newtons, ...)
If the header above contains a line with 'inDegrees', this indicates whether rotational values are in degrees (yes) or radians (no).

endheader
time	pelvis_tilt	pelvis_list	pelvis_rotation	pelvis_tx	pelvis_ty	pelvis_tz	hip_flexion_r	hip_adduction_r	hip_rotation_r	knee_angle_r	knee_angle_r_beta	ankle_angle_r	subtalar_angle_r	mtp_angle_r	hip_flexion_l	hip_adduction_l	hip_rotation_l	knee_angle_l	knee_angle_l_beta	ankle_angle_l	subtalar_angle_l	mtp_angle_l	lumbar_extension	lumbar_bending	lumbar_rotation	arm_flex_r	arm_add_r	arm_rot_r	elbow_flex_r	pro_sup_r	arm_flex_l	arm_add_l	arm_rot_l	elbow_flex_l	pro_sup_l
      1.21666670	     -5.42330254	      0.59483672	     -8.73677212	     -0.06372209	      1.33358397	     -0.09875275	      0.66560308	      0.89787032	      4.45414638	      0.11076449	      0.00193321	      6.40030720	    -11.42416514	     -7.49999974	      1.96330069	     -1.56891482	      3.20547440	      1.54881388	      0.02703190	      2.18870140	     -4.34624735	     -7.49999974	      3.07976420	      1.38435599	     -0.13768167	     -1.93653073	    -12.34486340	     10.60132373	     20.76588691	     85.41592111	     -3.88718231	    -10.72996161	      0.69101713	     22.24612414	     85.83606796
      1.23333330	     -5.21939153	      0.53291253	     -8.66836819	     -0.06380483	      1.33424011	     -0.09871255	      0.46447411	      0.92236686	      4.33804319	      0.11003940	      0.00192055	      6.50470468	    -11.18716521	     -7.49999976	      1.69621359	     -1.60140511	      3.29064723	      1.49078577	      0.02601912	      2.01459930	     -4.48441278	     -7.49999976	      2.60095647	      1.42699003	     -0.10173031	     -1.89823931	    -12.40820174	     10.67530055	     21.36407931	     84.59550646	     -3.77297633	    -10.77407945	      0.78470107	     22.86837729	     85.00917576
      1.25000000	     -5.12061131	      0.51166635	     -8.70408884	     -0.06390312	      1.33384675	     -0.09886825	      0.40142490	      0.91515220	      4.48978410	      0.10891193	      0.00190087	      6.54867873	    -11.24813287	     -7.49999977	      1.52398798	     -1.62115403	      3.24775096	      1.46573262	      0.02558186	      1.89028172	     -4.58607931	     -7.49999977	      2.39748341	      1.46192702	     -0.12411054	     -1.91303715	    -12.44323163	     10.78048809	     21.65860320	     83.91249642	     -3.57195398	    -10.76891036	      1.00419971	     23.25172856	     84.32682838
      1.26666670	     -5.16978222	      0.49216376	     -8.75155056	     -0.05563651	      1.33060941	     -0.09393669	      0.37986681	      0.96510285	      4.38432002	      0.10927156	      0.00190715	      6.61609091	    -10.99025172	     -7.49999983	      1.50832184	     -1.67545489	      3.31950324	      1.48135766	      0.02585457	      2.02530473	     -4.51456998	     -7.49999983	      2.65927582	      1.45879475	      0.00727430	     -2.20434463	    -12.21073979	      8.73370015	     21.74898521	     90.68178532	     -3.46961787	    -10.65808872	     -0.12184164	     23.38326889	     90.99881317
      1.28333330	     -5.05226143	      0.46873092	     -8.78969725	     -0.05578279	      1.33027291	     -0.09414666	      0.17883428	      0.99725807	      4.35219319	      0.10953382	      0.00191173	      6.70344524	    -10.83579209	     -7.49999984	      1.31628437	     -1.71501632	      3.46059811	      1.51741489	      0.02648389	      1.94546390	     -4.69989727	     -7.49999984	      2.65816474	      1.46071037	      0.01538691	     -2.31086352	    -12.26934540	      9.79768312	     21.65233759	     87.93900406	     -3.28378322	    -10.75739954	      1.22955597	     23.74449907	     88.12097046
      1.30000000	     -4.75280423	      0.43477773	     -8.86507723	     -0.05615303	      1.33085530	     -0.09399707	     -0.19292199	      1.04622115	      4.36808971	      0.10932790	      0.00190813	      6.79131009	    -10.68988080	     -7.49999985	      0.95956215	     -1.71252415	      3.66752948	      1.49714086	      0.02613004	      2.12480139	     -4.78318804	     -7.49999985	      2.22608701	      1.38533849	      0.02773480	     -2.77115620	    -12.26502581	      9.75043195	     22.68482890	     86.11342701	     -3.41887605	    -10.80126072	      1.26631245	     25.06979108	     86.26145243
      1.31666670	     -4.83046941	      0.44045886	     -8.87776443	     -0.05625521	      1.33027335	     -0.09413594	     -0.17142754	      1.09702664	      4.31009330	      0.10992128	      0.00191849	      6.87700521	    -10.58639374	     -7.49999985	      1.05314905	     -1.72692135	      3.74987859	      1.57237857	      0.02744318	      2.30085573	     -4.58368908	     -7.49999985	      2.54725713	      1.39433619	      0.04526013	     -2.44027046	    -12.17282691	     10.43673445	     21.58267539	     87.44077250	     -2.91036415	    -10.87215343	      2.60653744	     24.48269175	     87.45113853
      1.33333330	     -4.74513720	      0.46586275	     -8.81443350	     -0.06483040	      1.33075104	     -0.09886331	     -0.24066682	      1.06534625	      4.26414800	      0.10935832	      0.00190866	      6.97844356	    -10.59843019	     -7.49999986	      1.02835251	     -1.67278221	      3.90400695	      1.55330792	      0.02711034	      2.46554645	     -4.50096271	     -7.49999986	      2.31142023	      1.35648010	      0.12454133	     -2.60359874	    -12.05932195	      8.80729741	     22.09248842	     90.72055713	     -2.74634463	    -10.74677201	      2.09607700	     25.05230300	     90.56650832
      1.35000000	     -4.74858717	      0.47767918	     -8.76517414	     -0.06506504	      1.33039915	     -0.09906692	     -0.20891392	      1.03855776	      4.26696385	      0.10902395	      0.00190283	      7.07045498	    -10.64954545	     -7.49999986	      1.10392647	     -1.63769872	      3.88810469	      1.56940779	      0.02739133	      2.42253957	     -4.62454066	     -7.49999986	      2.21267610	      1.38640353	      0.16759298	     -2.15569665	    -12.06540697	      9.21840221	     21.61153572	     89.30909484	     -2.39446613	    -10.64762087	      2.66607676	     25.28046651	     89.11790780
      1.36666670	     -4.77550132	      0.48131987	     -8.75185097	     -0.06518924	      1.33065524	     -0.09892824	     -0.17249914	      1.01293031	      4.33720242	      0.10659279	      0.00186040	      7.10096501	    -10.70528569	     -7.49999987	      1.12064110	     -1.63649806	      3.84548008	      1.55136610	      0.02707645	      2.09500110	     -4.90319126	     -7.49999987	      2.21168249	      1.42708153	      0.11678856	     -1.90534738	    -12.09989337	      9.70838894	     21.46899850	     89.08115362	     -2.15532201	    -10.61834345	      3.39122558	     25.46371106	     88.82828812
      1.38333330	     -4.89243808	      0.52243210	     -8.68708547	     -0.06532004	      1.32700050	     -0.09913681	      0.01548984	      0.94626281	      4.27114548	      0.10627968	      0.00185493	      7.13952778	    -10.70479024	     -7.49999987	      1.18422494	     -1.62332504	      3.79682384	      1.52658067	      0.02664386	      2.10724783	     -4.90100675	     -7.49999987	      2.17527002	      1.41305282	      0.09623193	     -1.88319711	    -12.13523582	      9.70065654	     21.64742994	     88.95775686	     -2.10418028	    -10.58382327	      3.39702431	     25.66569810	     88.70671553
      1.40000000	     -4.62071474	      0.48462741	     -8.80555617	     -0.06537402	      1.33119281	     -0.09890491	     -0.25428801	      0.94118245	      4.32278543	      0.10468222	      0.00182705	      7.36341855	    -10.22104627	     -7.49999987	      0.94601027	     -1.60412562	      3.84298686	      1.58617519	      0.02768398	      2.21659226	     -4.84869709	     -7.49999987	      1.74742573	      1.43064833	      0.41767662	     -1.58898916	    -12.20667957	      9.83581434	     21.62819442	     88.36315476	     -1.85100404	    -10.36476260	      3.59762998	     26.17851443	     88.11577729
      1.41666670	     -4.69510084	      0.44272461	     -8.76412590	     -0.06540704	      1.32761314	     -0.09905916	     -0.18798801	      1.01401023	      4.50552596	      0.10612592	      0.00185225	      7.13876668	    -10.52144798	     -7.49999987	      1.08884020	     -1.66313414	      3.86657289	      1.67974573	      0.02931709	      2.38498450	     -4.80632382	     -7.49999987	      1.81959496	      1.48648410	      0.47486809	     -1.32678652	    -12.28358927	     10.73216989	     21.04748186	     87.88075858	     -1.63228574	    -10.44512958	      4.61130477	     26.27254154	     87.64074133
